<?xml version="1.0" standalone="no"?>
<!DOCTYPE svg PUBLIC "-//W3C//DTD SVG 20010904//EN"
 "http://www.w3.org/TR/2001/REC-SVG-20010904/DTD/svg10.dtd">
<svg version="1.0" xmlns="http://www.w3.org/2000/svg"
 width="501.000000pt" height="171.000000pt" viewBox="0 0 501.000000 171.000000"
 preserveAspectRatio="xMidYMid meet">

<g transform="translate(0.000000,171.000000) scale(0.100000,-0.100000)"
fill="#fff" stroke="none">
<path d="M3893 1688 c3 -13 11 -53 18 -90 13 -70 36 -85 25 -17 -6 36 -4 39
17 39 37 0 69 28 65 58 -2 14 -8 27 -14 29 -7 2 -10 -5 -7 -20 5 -25 -9 -41
-44 -50 -27 -6 -32 0 -35 42 -1 19 -8 31 -16 31 -10 0 -12 -7 -9 -22z"/>
<path d="M4311 1625 c-24 -97 -24 -95 -12 -95 5 0 18 35 30 78 23 87 25 102
12 102 -5 0 -18 -38 -30 -85z"/>
<path d="M3534 1546 c-26 -19 -34 -44 -22 -75 9 -24 11 -25 105 -5 26 5 34 3
39 -11 10 -26 -9 -50 -41 -50 -16 -1 -30 -6 -33 -13 -7 -23 53 -13 78 13 20
21 22 30 14 53 -11 32 -35 38 -86 21 -34 -11 -41 -10 -55 4 -15 15 -15 18 2
37 10 11 27 19 36 18 10 -2 19 2 21 7 5 16 -35 17 -58 1z"/>
<path d="M4596 1486 c-50 -56 -67 -86 -51 -86 3 0 16 12 29 27 33 38 49 23 41
-37 -4 -28 -2 -50 3 -54 5 -3 13 14 16 38 6 36 10 43 25 39 25 -6 57 12 63 35
8 27 -7 57 -40 81 l-30 21 -56 -64z m94 9 c23 -24 23 -25 5 -45 -22 -25 -33
-25 -65 0 l-25 19 24 25 c30 32 32 32 61 1z"/>
<path d="M3918 1162 l-167 -97 0 -210 0 -210 169 -97 c94 -54 176 -98 183 -98
6 0 89 45 182 99 l170 99 0 207 0 207 -170 99 c-93 54 -177 99 -185 98 -8 0
-90 -44 -182 -97z m185 -170 c-102 -1 -188 0 -190 2 -3 3 39 57 92 120 l97
116 93 -117 94 -118 -186 -3z m-128 114 c-48 -58 -91 -106 -95 -106 -18 0
-101 53 -93 60 14 14 268 159 271 155 2 -2 -36 -51 -83 -109z m308 36 c69 -40
129 -77 132 -82 6 -10 -101 -68 -108 -59 -26 31 -155 197 -162 208 -10 18 -10
18 138 -67z m157 -269 c0 -91 -2 -164 -5 -162 -2 3 -29 64 -59 136 l-54 131
56 31 c32 17 58 31 60 31 1 0 2 -75 2 -167z m-613 132 c23 -14 43 -27 43 -29
0 -11 -94 -253 -101 -261 -5 -5 -9 60 -9 153 0 116 3 162 12 162 6 0 31 -11
55 -25z m420 -117 c-25 -46 -68 -123 -95 -172 l-50 -88 -58 98 c-31 55 -77
132 -100 172 l-43 72 195 0 196 0 -45 -82z m-259 -100 c51 -86 92 -158 92
-161 0 -4 -293 43 -298 48 -2 2 20 67 49 144 29 78 55 138 59 134 4 -5 48 -79
98 -165z m383 24 c32 -75 53 -138 48 -140 -29 -11 -289 -47 -289 -40 0 13 172
318 179 318 3 0 31 -62 62 -138z m-421 -185 l135 -22 3 -67 3 -67 -148 86
c-81 47 -150 87 -152 89 -7 7 17 4 159 -19z m456 16 c-3 -4 -71 -44 -149 -89
l-142 -83 -3 61 c-2 33 -1 63 3 66 5 5 243 49 279 51 11 1 16 -2 12 -6z"/>
<path d="M4850 1159 c-41 -17 -78 -34 -82 -38 -9 -8 21 -91 34 -91 11 0 10 2
-7 42 -14 34 -13 36 11 47 36 16 40 14 54 -19 7 -16 16 -30 21 -30 5 0 3 15
-5 34 -13 32 -13 34 10 45 37 16 41 14 54 -24 6 -19 15 -33 20 -30 8 5 -21 95
-30 94 -3 0 -39 -14 -80 -30z"/>
<path d="M784 1171 c-116 -30 -173 -142 -122 -240 26 -52 60 -72 170 -103 97
-27 125 -42 144 -80 13 -26 14 -38 5 -70 -17 -57 -59 -80 -135 -75 -51 3 -63
8 -87 35 -16 18 -29 39 -29 47 0 11 -12 15 -45 15 -51 0 -54 -6 -25 -64 56
-115 251 -141 349 -48 64 60 76 157 29 217 -26 33 -73 57 -178 88 -105 32
-135 59 -134 119 2 59 37 90 106 95 63 5 95 -10 123 -54 17 -28 26 -32 63 -33
49 0 51 8 19 65 -30 52 -91 86 -165 91 -31 2 -71 -1 -88 -5z"/>
<path d="M3260 1163 c0 -20 137 -139 147 -129 3 3 -2 14 -11 25 -16 17 -16 22
-2 55 10 24 21 36 35 36 11 0 22 4 25 9 6 8 -86 21 -155 21 -31 0 -39 -4 -39
-17z m98 -9 c28 -6 30 -8 20 -35 -5 -16 -13 -29 -16 -29 -9 1 -72 58 -72 65 0
7 31 6 68 -1z"/>
<path d="M121 863 c-61 -169 -111 -311 -111 -315 0 -5 17 -8 39 -8 38 0 38 0
63 68 l25 67 140 3 140 3 25 -68 25 -68 42 -3 c37 -3 42 -1 37 15 -4 10 -55
151 -114 313 l-107 295 -46 3 -46 3 -112 -308z m218 39 c28 -79 51 -148 51
-153 0 -5 -52 -9 -116 -9 -107 0 -116 1 -109 18 3 9 29 81 57 160 28 78 55
139 59 135 4 -4 30 -72 58 -151z"/>
<path d="M1190 855 l0 -315 40 0 40 0 0 129 0 128 104 5 c163 9 226 53 234
168 5 72 -8 109 -54 150 -47 41 -90 50 -236 50 l-128 0 0 -315z m288 231 c40
-21 52 -44 52 -100 0 -36 -6 -52 -29 -78 -29 -33 -31 -33 -130 -36 l-101 -4 0
114 c0 63 3 118 8 122 12 14 166 0 200 -18z"/>
<path d="M1720 855 l0 -315 40 0 40 0 0 315 0 315 -40 0 -40 0 0 -315z"/>
<path d="M1950 856 l0 -316 35 0 34 0 3 128 3 127 51 3 51 3 73 -126 c40 -70
78 -129 85 -131 7 -3 29 -4 49 -2 l36 3 -75 125 c-41 69 -75 127 -75 130 0 3
20 13 45 24 52 21 79 55 96 118 22 81 -16 163 -94 205 -25 14 -63 18 -174 21
l-143 4 0 -316z m289 226 c38 -28 55 -88 39 -137 -22 -64 -54 -80 -161 -80
l-92 0 -3 109 c-1 61 0 116 3 124 9 23 180 10 214 -16z"/>
<path d="M2500 855 l0 -315 170 0 170 0 0 30 0 30 -130 0 -130 0 0 115 0 115
115 0 115 0 0 30 0 30 -115 0 -115 0 0 110 0 110 130 0 130 0 0 30 0 30 -170
0 -170 0 0 -315z"/>
<path d="M3255 880 c-26 -29 -24 -79 4 -102 32 -25 67 -23 96 7 30 30 31 54 4
89 -26 33 -77 36 -104 6z"/>
<path d="M4840 880 c-42 -42 -8 -120 53 -120 58 0 91 85 49 123 -25 23 -78 21
-102 -3z"/>
<path d="M4735 604 c-9 -25 -16 -47 -14 -49 6 -6 159 -65 168 -65 5 0 16 18
25 40 19 47 19 50 7 50 -4 0 -15 -15 -22 -34 -14 -35 -14 -35 -47 -21 -28 12
-32 17 -22 34 5 11 10 28 9 38 0 12 -6 7 -16 -14 -17 -35 -32 -40 -64 -23 -18
10 -18 13 -5 45 8 19 11 37 7 40 -5 2 -16 -16 -26 -41z"/>
<path d="M3270 581 c0 -5 12 -11 27 -13 20 -2 29 -12 40 -42 12 -35 11 -41 -4
-58 -9 -10 -13 -21 -10 -24 6 -6 26 9 129 97 18 15 28 31 24 37 -9 15 -206 17
-206 3z m140 -46 c-19 -19 -37 -35 -41 -35 -6 0 -29 53 -29 66 0 2 23 4 52 4
l52 0 -34 -35z"/>
<path d="M4533 312 l-32 -27 61 -72 c33 -40 65 -70 69 -67 5 3 -2 20 -16 39
-32 41 -20 52 40 35 24 -7 49 -10 57 -7 11 4 -4 13 -60 32 -8 3 -10 14 -6 30
8 33 -19 65 -55 65 -14 -1 -40 -13 -58 -28z m91 -14 c9 -14 5 -23 -17 -45
l-27 -28 -25 30 -24 30 21 18 c25 21 57 19 72 -5z"/>
<path d="M3607 302 c-22 -24 -21 -40 3 -77 26 -39 25 -62 -1 -70 -26 -9 -62
22 -56 47 3 11 0 18 -9 18 -22 0 -16 -39 11 -65 26 -27 46 -31 76 -15 25 14
24 43 -3 91 -17 31 -19 41 -8 54 23 27 58 10 64 -31 4 -25 26 -30 26 -6 0 50
-72 88 -103 54z"/>
<path d="M4280 168 c0 -20 38 -159 44 -166 3 -3 8 -3 11 0 8 8 -36 178 -46
178 -5 0 -9 -6 -9 -12z"/>
<path d="M3921 108 c-7 -35 -15 -73 -18 -85 -3 -14 -1 -23 6 -23 6 0 14 13 17
30 6 28 8 29 49 23 39 -5 45 -3 60 21 25 38 8 71 -42 85 -58 16 -60 15 -72
-51z m96 15 c19 -24 -1 -53 -37 -53 -36 0 -43 12 -35 51 6 27 10 30 33 24 15
-3 32 -13 39 -22z"/>
</g>
</svg>
